# Created by FreeCAD <https://www.freecad.org>
v -62.500000 -37.500000 0.000000
v 0.000000 0.000000 0.000000
v -37.500000 -62.500000 0.000000
v 0.000000 -62.500000 0.000000
v -62.500000 62.500000 -0.000000
v 62.500000 37.500000 -0.000000
v 62.500000 0.000000 0.000000
v 37.500000 62.500000 -0.000000
v -0.000000 62.500000 31.250000
v -62.500000 62.500000 31.250000
v 0.000000 62.500000 62.500000
v 37.500000 62.500000 100.000000
v 62.500000 37.500000 125.000000
v 62.500000 0.000000 62.500000
v 62.500000 -39.951904 125.000000
v 62.500000 -39.951904 62.500000
v -0.000000 0.000000 31.250000
v 0.000000 0.000000 62.500000
v -0.000000 -62.500000 31.250000
v -37.500000 -62.500000 31.250000
v -62.500000 -37.500000 31.250000
v 39.951904 -62.500000 102.451904
v 57.735027 -57.735027 120.235023
v 0.000000 -62.500000 62.500000
v 57.735027 -57.735027 62.500000
v 39.951904 -62.500000 62.500000
vn 0.000000 -0.000000 -1.000000
vn -0.000000 -0.000000 -1.000000
vn 0.000000 -0.000000 -1.000000
vn 0.000000 -0.000000 -1.000000
vn 0.000000 -0.000000 -1.000000
vn 0.000000 -0.000000 -1.000000
vn 0.000000 1.000000 0.000000
vn 0.000000 1.000000 0.000000
vn 0.000000 1.000000 0.000000
vn 0.000000 1.000000 0.000000
vn 0.707107 0.707107 -0.000000
vn 0.707107 0.707107 0.000000
vn 1.000000 0.000000 0.000000
vn 1.000000 0.000000 0.000000
vn 1.000000 0.000000 -0.000000
vn 1.000000 0.000000 -0.000000
vn 0.000000 -1.000000 0.000000
vn 0.000000 -1.000000 0.000000
vn 0.000000 -1.000000 0.000000
vn 1.000000 0.000000 0.000000
vn 1.000000 -0.000000 0.000000
vn 0.000000 -1.000000 0.000000
vn 0.000000 -1.000000 0.000000
vn -0.707107 -0.707107 -0.000000
vn -0.707107 -0.707107 0.000000
vn -1.000000 0.000000 0.000000
vn -1.000000 0.000000 -0.000000
vn -0.707107 -0.000000 0.707107
vn -0.707107 0.000000 0.707107
vn -0.707107 0.000000 0.707107
vn -0.707107 0.000000 0.707107
vn -0.707107 0.000000 0.707107
vn -0.707107 0.000000 0.707107
vn -1.000000 0.000000 0.000000
vn -1.000000 -0.000000 0.000000
vn 0.000000 -0.000000 1.000000
vn 0.000000 0.000000 1.000000
vn 0.000000 0.000000 1.000000
vn 0.000000 0.000000 1.000000
vn 0.965926 -0.258819 0.000000
vn 0.965926 -0.258819 0.000000
vn 0.000000 0.000000 -1.000000
vn 0.000000 0.000000 -1.000000
vn 0.000000 0.000000 -1.000000
vn 0.000000 0.000000 -1.000000
vn 0.000000 -1.000000 0.000000
vn 0.258819 -0.965926 0.000000
vn 0.258819 -0.965926 0.000000
o widget
f 1//1 2//1 3//1
f 3//2 2//2 4//2
f 1//3 5//3 2//3
f 2//4 6//4 7//4
f 5//5 8//5 2//5
f 2//6 8//6 6//6
f 9//7 5//7 10//7
f 8//8 5//8 9//8
f 11//9 8//9 9//9
f 12//10 8//10 11//10
f 8//11 12//11 6//11
f 12//12 13//12 6//12
f 6//13 14//13 7//13
f 14//14 15//14 16//14
f 6//15 13//15 14//15
f 14//16 13//16 15//16
f 17//17 2//17 7//17
f 17//18 7//18 14//18
f 18//19 17//19 14//19
f 4//20 2//20 17//20
f 19//21 4//21 17//21
f 4//22 19//22 3//22
f 3//23 19//23 20//23
f 20//24 21//24 3//24
f 3//25 21//25 1//25
f 21//26 10//26 1//26
f 10//27 5//27 1//27
f 15//28 22//28 23//28
f 13//29 18//29 15//29
f 22//30 18//30 24//30
f 15//31 18//31 22//31
f 13//32 12//32 18//32
f 12//33 11//33 18//33
f 18//34 11//34 17//34
f 11//35 9//35 17//35
f 19//36 17//36 20//36
f 17//37 21//37 20//37
f 9//38 10//38 17//38
f 17//39 10//39 21//39
f 15//40 23//40 16//40
f 16//41 23//41 25//41
f 18//42 14//42 16//42
f 26//43 16//43 25//43
f 26//44 18//44 16//44
f 24//45 18//45 26//45
f 26//46 22//46 24//46
f 23//47 22//47 25//47
f 25//48 22//48 26//48
